<svg height="512" viewBox="0 0 64 64" width="512" xmlns="http://www.w3.org/2000/svg" xmlns:xlink="http://www.w3.org/1999/xlink"><linearGradient id="New_Gradient_Swatch_1" gradientUnits="userSpaceOnUse" x1="32" x2="32" y1=".412" y2="64.75"><stop offset="0" stop-color="#fff33b"/><stop offset=".014" stop-color="#fee72e"/><stop offset=".042" stop-color="#fed51b"/><stop offset=".07" stop-color="#fdca10"/><stop offset=".1" stop-color="#fdc70c"/><stop offset=".4" stop-color="#f3903f"/><stop offset=".8" stop-color="#ed683c"/><stop offset="1" stop-color="#e93e3a"/></linearGradient><linearGradient id="New_Gradient_Swatch_1-2" x1="27" x2="27" xlink:href="#New_Gradient_Swatch_1" y1=".412" y2="64.75"/><linearGradient id="New_Gradient_Swatch_1-3" x1="7" x2="7" xlink:href="#New_Gradient_Swatch_1" y1=".412" y2="64.75"/><linearGradient id="New_Gradient_Swatch_1-4" x1="11" x2="11" xlink:href="#New_Gradient_Swatch_1" y1=".412" y2="64.75"/><linearGradient id="New_Gradient_Swatch_1-5" x1="15" x2="15" xlink:href="#New_Gradient_Swatch_1" y1=".412" y2="64.75"/><linearGradient id="New_Gradient_Swatch_1-6" x1="47" x2="47" xlink:href="#New_Gradient_Swatch_1" y1=".412" y2="64.75"/><path d="m59 2h-44a3 3 0 0 0 -3 3v2h-2a3 3 0 0 0 -3 3v2h-2a3 3 0 0 0 -3 3v44a3 3 0 0 0 3 3h44a3 3 0 0 0 3-3v-2h2a3 3 0 0 0 3-3v-2h2a3 3 0 0 0 3-3v-44a3 3 0 0 0 -3-3zm-45 3a1 1 0 0 1 1-1h44a1 1 0 0 1 1 1v5h-3a3 3 0 0 0 -3-3h-40zm-5 5a1 1 0 0 1 1-1h44a1 1 0 0 1 1 1v5h-3a3 3 0 0 0 -3-3h-40zm-4 4h44a1 1 0 0 1 1 1v5h-46v-5a1 1 0 0 1 1-1zm44 46h-44a1 1 0 0 1 -1-1v-37h46v37a1 1 0 0 1 -1 1zm5-5h-2v-38h3v37a1 1 0 0 1 -1 1zm5-5h-2v-38h3v37a1 1 0 0 1 -1 1z" fill="url(#New_Gradient_Swatch_1)"/><path d="m43 30h-22.028a.978.978 0 0 1 -.972-1 3 3 0 0 0 -3-3h-6a3 3 0 0 0 -3 3v24a3 3 0 0 0 3 3h32a3 3 0 0 0 3-3v-20a3 3 0 0 0 -3-3zm-33 23v-24a1 1 0 0 1 1-1h6a1.008 1.008 0 0 1 1 1.031 2.974 2.974 0 0 0 2.972 2.969h22.028a1 1 0 0 1 1 1v1h-29.03a2.974 2.974 0 0 0 -2.97 2.97v17.03h-1a1 1 0 0 1 -1-1zm33 1h-29v-17.03a.971.971 0 0 1 .97-.97h29.03v17a1 1 0 0 1 -1 1z" fill="url(#New_Gradient_Swatch_1-2)"/><path d="m6 16h2v2h-2z" fill="url(#New_Gradient_Swatch_1-3)"/><path d="m10 16h2v2h-2z" fill="url(#New_Gradient_Swatch_1-4)"/><path d="m14 16h2v2h-2z" fill="url(#New_Gradient_Swatch_1-5)"/><path d="m46 16h2v2h-2z" fill="url(#New_Gradient_Swatch_1-6)"/></svg>